<mxfile host="drawio-plugin" modified="2022-11-21T21:06:05.244Z" agent="5.0 (Macintosh; Intel Mac OS X 10_15_7) AppleWebKit/537.36 (KHTML, like Gecko) Chrome/98.0.4758.102 Safari/537.36" etag="LclEI4zQq8Ke4zhzIVJX" version="15.5.4" type="embed"><diagram id="C5RBs43oDa-KdzZeNtuy" name="Page-1"><mxGraphModel dx="808" dy="484" grid="1" gridSize="10" guides="1" tooltips="1" connect="1" arrows="1" fold="1" page="1" pageScale="1" pageWidth="1169" pageHeight="827" math="0" shadow="0"><root><mxCell id="WIyWlLk6GJQsqaUBKTNV-0"/><mxCell id="WIyWlLk6GJQsqaUBKTNV-1" parent="WIyWlLk6GJQsqaUBKTNV-0"/><mxCell id="zkfFHV4jXpPFQw0GAbJ--0" value="Pizza" style="swimlane;fontStyle=2;align=center;verticalAlign=top;childLayout=stackLayout;horizontal=1;startSize=26;horizontalStack=0;resizeParent=1;resizeLast=0;collapsible=1;marginBottom=0;rounded=0;shadow=0;strokeWidth=1;" parent="WIyWlLk6GJQsqaUBKTNV-1" vertex="1"><mxGeometry x="214" y="219" width="176" height="110" as="geometry"><mxRectangle x="230" y="140" width="160" height="26" as="alternateBounds"/></mxGeometry></mxCell><mxCell id="zkfFHV4jXpPFQw0GAbJ--1" value="- toppings: ArrayList&lt;Topping&gt;" style="text;align=left;verticalAlign=top;spacingLeft=4;spacingRight=4;overflow=hidden;rotatable=0;points=[[0,0.5],[1,0.5]];portConstraint=eastwest;" parent="zkfFHV4jXpPFQw0GAbJ--0" vertex="1"><mxGeometry y="26" width="176" height="26" as="geometry"/></mxCell><mxCell id="zkfFHV4jXpPFQw0GAbJ--2" value="- crust: Crust" style="text;align=left;verticalAlign=top;spacingLeft=4;spacingRight=4;overflow=hidden;rotatable=0;points=[[0,0.5],[1,0.5]];portConstraint=eastwest;rounded=0;shadow=0;html=0;" parent="zkfFHV4jXpPFQw0GAbJ--0" vertex="1"><mxGeometry y="52" width="176" height="26" as="geometry"/></mxCell><mxCell id="zkfFHV4jXpPFQw0GAbJ--3" value="- Size: size" style="text;align=left;verticalAlign=top;spacingLeft=4;spacingRight=4;overflow=hidden;rotatable=0;points=[[0,0.5],[1,0.5]];portConstraint=eastwest;rounded=0;shadow=0;html=0;" parent="zkfFHV4jXpPFQw0GAbJ--0" vertex="1"><mxGeometry y="78" width="176" height="26" as="geometry"/></mxCell><mxCell id="zkfFHV4jXpPFQw0GAbJ--12" value="" style="endArrow=block;endSize=10;endFill=0;shadow=0;strokeWidth=1;rounded=0;edgeStyle=elbowEdgeStyle;elbow=vertical;" parent="WIyWlLk6GJQsqaUBKTNV-1" edge="1"><mxGeometry width="160" relative="1" as="geometry"><mxPoint x="185" y="459" as="sourcePoint"/><mxPoint x="300" y="329" as="targetPoint"/><Array as="points"><mxPoint x="240" y="399"/></Array></mxGeometry></mxCell><mxCell id="zkfFHV4jXpPFQw0GAbJ--16" value="" style="endArrow=block;endSize=10;endFill=0;shadow=0;strokeWidth=1;rounded=0;edgeStyle=elbowEdgeStyle;elbow=vertical;" parent="WIyWlLk6GJQsqaUBKTNV-1" edge="1"><mxGeometry width="160" relative="1" as="geometry"><mxPoint x="260" y="459" as="sourcePoint"/><mxPoint x="300" y="329" as="targetPoint"/><Array as="points"><mxPoint x="260" y="399"/><mxPoint x="300" y="399"/></Array></mxGeometry></mxCell><mxCell id="SAM__H9FkMtUs_shlH4a-1" value="" style="endArrow=block;endSize=10;endFill=0;shadow=0;strokeWidth=1;rounded=0;edgeStyle=elbowEdgeStyle;elbow=vertical;" parent="WIyWlLk6GJQsqaUBKTNV-1" edge="1"><mxGeometry width="160" relative="1" as="geometry"><mxPoint x="340" y="459" as="sourcePoint"/><mxPoint x="300" y="329" as="targetPoint"/><Array as="points"><mxPoint x="340" y="399"/><mxPoint x="320" y="399"/><mxPoint x="320" y="399"/><mxPoint x="320" y="394"/></Array></mxGeometry></mxCell><mxCell id="SAM__H9FkMtUs_shlH4a-3" value="" style="endArrow=block;endSize=10;endFill=0;shadow=0;strokeWidth=1;rounded=0;edgeStyle=elbowEdgeStyle;elbow=vertical;" parent="WIyWlLk6GJQsqaUBKTNV-1" edge="1"><mxGeometry width="160" relative="1" as="geometry"><mxPoint x="422" y="459" as="sourcePoint"/><mxPoint x="300" y="329" as="targetPoint"/><Array as="points"><mxPoint x="350" y="399"/><mxPoint x="394" y="374"/></Array></mxGeometry></mxCell><mxCell id="SAM__H9FkMtUs_shlH4a-4" value="Crust" style="rounded=0;whiteSpace=wrap;html=1;" parent="WIyWlLk6GJQsqaUBKTNV-1" vertex="1"><mxGeometry x="80" y="274.5" width="60" height="20" as="geometry"/></mxCell><mxCell id="SAM__H9FkMtUs_shlH4a-5" value="Size" style="rounded=0;whiteSpace=wrap;html=1;" parent="WIyWlLk6GJQsqaUBKTNV-1" vertex="1"><mxGeometry x="80" y="299.5" width="60" height="20" as="geometry"/></mxCell><mxCell id="SAM__H9FkMtUs_shlH4a-6" value="BuildYourOwn" style="rounded=0;whiteSpace=wrap;html=1;" parent="WIyWlLk6GJQsqaUBKTNV-1" vertex="1"><mxGeometry x="215" y="459" width="90" height="31" as="geometry"/></mxCell><mxCell id="SAM__H9FkMtUs_shlH4a-7" value="Deluxe" style="rounded=0;whiteSpace=wrap;html=1;" parent="WIyWlLk6GJQsqaUBKTNV-1" vertex="1"><mxGeometry x="160" y="459" width="50" height="31" as="geometry"/></mxCell><mxCell id="SAM__H9FkMtUs_shlH4a-8" value="Meatzza" style="rounded=0;whiteSpace=wrap;html=1;" parent="WIyWlLk6GJQsqaUBKTNV-1" vertex="1"><mxGeometry x="310" y="459" width="60" height="31" as="geometry"/></mxCell><mxCell id="SAM__H9FkMtUs_shlH4a-9" value="BBQChicken" style="rounded=0;whiteSpace=wrap;html=1;" parent="WIyWlLk6GJQsqaUBKTNV-1" vertex="1"><mxGeometry x="380" y="459" width="83" height="31" as="geometry"/></mxCell><mxCell id="SAM__H9FkMtUs_shlH4a-10" value="&lt;font color=&quot;#ffffff&quot;&gt;&lt;span style=&quot;font-family: &amp;#34;helvetica&amp;#34; ; font-size: 12px ; font-style: italic ; font-weight: 400 ; letter-spacing: normal ; text-align: center ; text-indent: 0px ; text-transform: none ; word-spacing: 0px ; float: none ; display: inline&quot;&gt;&amp;lt;&amp;lt;Interface&amp;gt;&amp;gt;&lt;/span&gt;&lt;br style=&quot;padding: 0px ; margin: 0px ; font-family: &amp;#34;helvetica&amp;#34; ; font-size: 12px ; font-style: italic ; font-weight: 400 ; letter-spacing: normal ; text-align: center ; text-indent: 0px ; text-transform: none ; word-spacing: 0px&quot;&gt;&lt;span style=&quot;font-family: &amp;#34;helvetica&amp;#34; ; font-size: 12px ; font-style: italic ; font-weight: 400 ; letter-spacing: normal ; text-align: center ; text-indent: 0px ; text-transform: none ; word-spacing: 0px ; float: none ; display: inline&quot;&gt;PizzaFactory&lt;/span&gt;&lt;/font&gt;" style="rounded=0;whiteSpace=wrap;html=1;" parent="WIyWlLk6GJQsqaUBKTNV-1" vertex="1"><mxGeometry x="545" y="500" width="120" height="40" as="geometry"/></mxCell><mxCell id="SAM__H9FkMtUs_shlH4a-11" value="ChicagoPizza" style="rounded=0;whiteSpace=wrap;html=1;" parent="WIyWlLk6GJQsqaUBKTNV-1" vertex="1"><mxGeometry x="475" y="590" width="94" height="30" as="geometry"/></mxCell><mxCell id="SAM__H9FkMtUs_shlH4a-12" value="NYPizza" style="rounded=0;whiteSpace=wrap;html=1;" parent="WIyWlLk6GJQsqaUBKTNV-1" vertex="1"><mxGeometry x="635" y="590" width="94" height="30" as="geometry"/></mxCell><mxCell id="SAM__H9FkMtUs_shlH4a-13" value="&lt;font color=&quot;#ffffff&quot;&gt;&lt;span style=&quot;font-family: &amp;#34;helvetica&amp;#34; ; font-size: 12px ; font-style: italic ; font-weight: 400 ; letter-spacing: normal ; text-align: center ; text-indent: 0px ; text-transform: none ; word-spacing: 0px ; float: none ; display: inline&quot;&gt;&amp;lt;&amp;lt;Interface&amp;gt;&amp;gt;&lt;/span&gt;&lt;br style=&quot;padding: 0px ; margin: 0px ; font-family: &amp;#34;helvetica&amp;#34; ; font-size: 12px ; font-style: italic ; font-weight: 400 ; letter-spacing: normal ; text-align: center ; text-indent: 0px ; text-transform: none ; word-spacing: 0px&quot;&gt;&lt;i&gt;Customizable&lt;/i&gt;&lt;/font&gt;" style="rounded=0;whiteSpace=wrap;html=1;" parent="WIyWlLk6GJQsqaUBKTNV-1" vertex="1"><mxGeometry x="492" y="120" width="120" height="40" as="geometry"/></mxCell><mxCell id="SAM__H9FkMtUs_shlH4a-14" value="StoreOrder" style="swimlane;fontStyle=0;align=center;verticalAlign=top;childLayout=stackLayout;horizontal=1;startSize=26;horizontalStack=0;resizeParent=1;resizeLast=0;collapsible=1;marginBottom=0;rounded=0;shadow=0;strokeWidth=1;" parent="WIyWlLk6GJQsqaUBKTNV-1" vertex="1"><mxGeometry x="714" y="219" width="176" height="80" as="geometry"><mxRectangle x="230" y="140" width="160" height="26" as="alternateBounds"/></mxGeometry></mxCell><mxCell id="SAM__H9FkMtUs_shlH4a-15" value="- orderList: ArrayList&lt;Order&gt;" style="text;align=left;verticalAlign=top;spacingLeft=4;spacingRight=4;overflow=hidden;rotatable=0;points=[[0,0.5],[1,0.5]];portConstraint=eastwest;" parent="SAM__H9FkMtUs_shlH4a-14" vertex="1"><mxGeometry y="26" width="176" height="26" as="geometry"/></mxCell><mxCell id="SAM__H9FkMtUs_shlH4a-16" value="- currentOrder: Order" style="text;align=left;verticalAlign=top;spacingLeft=4;spacingRight=4;overflow=hidden;rotatable=0;points=[[0,0.5],[1,0.5]];portConstraint=eastwest;rounded=0;shadow=0;html=0;" parent="SAM__H9FkMtUs_shlH4a-14" vertex="1"><mxGeometry y="52" width="176" height="26" as="geometry"/></mxCell><mxCell id="SAM__H9FkMtUs_shlH4a-18" value="Order" style="swimlane;fontStyle=0;align=center;verticalAlign=top;childLayout=stackLayout;horizontal=1;startSize=26;horizontalStack=0;resizeParent=1;resizeLast=0;collapsible=1;marginBottom=0;rounded=0;shadow=0;strokeWidth=1;" parent="WIyWlLk6GJQsqaUBKTNV-1" vertex="1"><mxGeometry x="464" y="219" width="176" height="110" as="geometry"><mxRectangle x="230" y="140" width="160" height="26" as="alternateBounds"/></mxGeometry></mxCell><mxCell id="SAM__H9FkMtUs_shlH4a-19" value="- valid: boolean" style="text;align=left;verticalAlign=top;spacingLeft=4;spacingRight=4;overflow=hidden;rotatable=0;points=[[0,0.5],[1,0.5]];portConstraint=eastwest;" parent="SAM__H9FkMtUs_shlH4a-18" vertex="1"><mxGeometry y="26" width="176" height="26" as="geometry"/></mxCell><mxCell id="SAM__H9FkMtUs_shlH4a-20" value="- pizzaList: ArrayList&lt;Pizza&gt;" style="text;align=left;verticalAlign=top;spacingLeft=4;spacingRight=4;overflow=hidden;rotatable=0;points=[[0,0.5],[1,0.5]];portConstraint=eastwest;rounded=0;shadow=0;html=0;" parent="SAM__H9FkMtUs_shlH4a-18" vertex="1"><mxGeometry y="52" width="176" height="28" as="geometry"/></mxCell><mxCell id="SAM__H9FkMtUs_shlH4a-22" value="- orderNumber: int" style="text;align=left;verticalAlign=top;spacingLeft=4;spacingRight=4;overflow=hidden;rotatable=0;points=[[0,0.5],[1,0.5]];portConstraint=eastwest;" parent="SAM__H9FkMtUs_shlH4a-18" vertex="1"><mxGeometry y="80" width="176" height="26" as="geometry"/></mxCell><mxCell id="SAM__H9FkMtUs_shlH4a-23" value="CartController" style="rounded=0;whiteSpace=wrap;html=1;" parent="WIyWlLk6GJQsqaUBKTNV-1" vertex="1"><mxGeometry x="770" y="480" width="120" height="31" as="geometry"/></mxCell><mxCell id="SAM__H9FkMtUs_shlH4a-24" value="Main" style="rounded=0;whiteSpace=wrap;html=1;" parent="WIyWlLk6GJQsqaUBKTNV-1" vertex="1"><mxGeometry x="770" y="340" width="120" height="30" as="geometry"/></mxCell><mxCell id="SAM__H9FkMtUs_shlH4a-25" value="ChicagoController&lt;span style=&quot;color: rgba(0, 0, 0, 0); font-family: monospace; font-size: 0px; text-align: start;&quot;&gt;%3CmxGraphModel%3E%3Croot%3E%3CmxCell%20id%3D%220%22%2F%3E%3CmxCell%20id%3D%221%22%20parent%3D%220%22%2F%3E%3CmxCell%20id%3D%222%22%20value%3D%22CartController%22%20style%3D%22rounded%3D0%3BwhiteSpace%3Dwrap%3Bhtml%3D1%3B%22%20vertex%3D%221%22%20parent%3D%221%22%3E%3CmxGeometry%20x%3D%2240%22%20y%3D%22630%22%20width%3D%22120%22%20height%3D%2230%22%20as%3D%22geometry%22%2F%3E%3C%2FmxCell%3E%3C%2Froot%3E%3C%2FmxGraphModel%3E&lt;/span&gt;" style="rounded=0;whiteSpace=wrap;html=1;" parent="WIyWlLk6GJQsqaUBKTNV-1" vertex="1"><mxGeometry x="770" y="411" width="120" height="30" as="geometry"/></mxCell><mxCell id="SAM__H9FkMtUs_shlH4a-26" value="NewYorkController" style="rounded=0;whiteSpace=wrap;html=1;" parent="WIyWlLk6GJQsqaUBKTNV-1" vertex="1"><mxGeometry x="770" y="446" width="120" height="30" as="geometry"/></mxCell><mxCell id="SAM__H9FkMtUs_shlH4a-27" value="MainController" style="rounded=0;whiteSpace=wrap;html=1;" parent="WIyWlLk6GJQsqaUBKTNV-1" vertex="1"><mxGeometry x="770" y="375" width="120" height="30" as="geometry"/></mxCell><mxCell id="SAM__H9FkMtUs_shlH4a-28" value="OrdersController" style="rounded=0;whiteSpace=wrap;html=1;" parent="WIyWlLk6GJQsqaUBKTNV-1" vertex="1"><mxGeometry x="770" y="516" width="120" height="30" as="geometry"/></mxCell><mxCell id="SAM__H9FkMtUs_shlH4a-29" value="Topping" style="rounded=0;whiteSpace=wrap;html=1;" parent="WIyWlLk6GJQsqaUBKTNV-1" vertex="1"><mxGeometry x="80" y="248.5" width="60" height="20" as="geometry"/></mxCell><mxCell id="SAM__H9FkMtUs_shlH4a-30" value="" style="endArrow=block;endSize=10;endFill=0;shadow=0;strokeWidth=1;rounded=0;edgeStyle=elbowEdgeStyle;elbow=vertical;entryX=0.5;entryY=1;entryDx=0;entryDy=0;dashed=1;" parent="WIyWlLk6GJQsqaUBKTNV-1" target="SAM__H9FkMtUs_shlH4a-13" edge="1"><mxGeometry width="160" relative="1" as="geometry"><mxPoint x="290" y="219" as="sourcePoint"/><mxPoint x="405" y="89" as="targetPoint"/><Array as="points"/></mxGeometry></mxCell><mxCell id="SAM__H9FkMtUs_shlH4a-31" value="" style="endArrow=block;endSize=10;endFill=0;shadow=0;strokeWidth=1;rounded=0;edgeStyle=elbowEdgeStyle;elbow=vertical;dashed=1;exitX=0.5;exitY=0;exitDx=0;exitDy=0;" parent="WIyWlLk6GJQsqaUBKTNV-1" source="SAM__H9FkMtUs_shlH4a-18" edge="1"><mxGeometry width="160" relative="1" as="geometry"><mxPoint x="344" y="229" as="sourcePoint"/><mxPoint x="552" y="160" as="targetPoint"/><Array as="points"/></mxGeometry></mxCell><mxCell id="SAM__H9FkMtUs_shlH4a-32" value="" style="endArrow=block;endSize=10;endFill=0;shadow=0;strokeWidth=1;rounded=0;edgeStyle=elbowEdgeStyle;elbow=vertical;dashed=1;exitX=0.5;exitY=0;exitDx=0;exitDy=0;entryX=0.5;entryY=1;entryDx=0;entryDy=0;" parent="WIyWlLk6GJQsqaUBKTNV-1" source="SAM__H9FkMtUs_shlH4a-14" target="SAM__H9FkMtUs_shlH4a-13" edge="1"><mxGeometry width="160" relative="1" as="geometry"><mxPoint x="344" y="229" as="sourcePoint"/><mxPoint x="554" y="160" as="targetPoint"/><Array as="points"/></mxGeometry></mxCell><mxCell id="SAM__H9FkMtUs_shlH4a-33" value="" style="endArrow=block;endSize=10;endFill=0;shadow=0;strokeWidth=1;rounded=0;edgeStyle=elbowEdgeStyle;elbow=vertical;entryX=0.5;entryY=1;entryDx=0;entryDy=0;dashed=1;" parent="WIyWlLk6GJQsqaUBKTNV-1" source="SAM__H9FkMtUs_shlH4a-11" edge="1"><mxGeometry width="160" relative="1" as="geometry"><mxPoint x="385" y="599" as="sourcePoint"/><mxPoint x="603" y="540" as="targetPoint"/><Array as="points"/></mxGeometry></mxCell><mxCell id="SAM__H9FkMtUs_shlH4a-34" value="" style="endArrow=block;endSize=10;endFill=0;shadow=0;strokeWidth=1;rounded=0;edgeStyle=elbowEdgeStyle;elbow=vertical;dashed=1;exitX=0.5;exitY=0;exitDx=0;exitDy=0;entryX=0.5;entryY=1;entryDx=0;entryDy=0;" parent="WIyWlLk6GJQsqaUBKTNV-1" source="SAM__H9FkMtUs_shlH4a-12" edge="1"><mxGeometry width="160" relative="1" as="geometry"><mxPoint x="803" y="599" as="sourcePoint"/><mxPoint x="603" y="540" as="targetPoint"/><Array as="points"/></mxGeometry></mxCell><mxCell id="SAM__H9FkMtUs_shlH4a-38" value="" style="endArrow=diamondThin;endFill=1;endSize=15;html=1;rounded=0;exitX=1;exitY=0.5;exitDx=0;exitDy=0;entryX=0;entryY=0.5;entryDx=0;entryDy=0;" parent="WIyWlLk6GJQsqaUBKTNV-1" source="SAM__H9FkMtUs_shlH4a-4" target="zkfFHV4jXpPFQw0GAbJ--2" edge="1"><mxGeometry width="160" relative="1" as="geometry"><mxPoint x="190" y="283.84000000000003" as="sourcePoint"/><mxPoint x="220" y="284" as="targetPoint"/><Array as="points"/></mxGeometry></mxCell><mxCell id="SAM__H9FkMtUs_shlH4a-39" value="" style="endArrow=diamondThin;endFill=1;endSize=15;html=1;rounded=0;exitX=1;exitY=0.5;exitDx=0;exitDy=0;entryX=0;entryY=0.5;entryDx=0;entryDy=0;" parent="WIyWlLk6GJQsqaUBKTNV-1" edge="1"><mxGeometry width="160" relative="1" as="geometry"><mxPoint x="141" y="309.74" as="sourcePoint"/><mxPoint x="215" y="309.24" as="targetPoint"/><Array as="points"/></mxGeometry></mxCell><mxCell id="SAM__H9FkMtUs_shlH4a-40" value="" style="endArrow=diamondThin;endFill=1;endSize=15;html=1;rounded=0;exitX=1;exitY=0.5;exitDx=0;exitDy=0;entryX=0;entryY=0.5;entryDx=0;entryDy=0;" parent="WIyWlLk6GJQsqaUBKTNV-1" edge="1"><mxGeometry width="160" relative="1" as="geometry"><mxPoint x="140" y="258.74" as="sourcePoint"/><mxPoint x="214" y="258.24" as="targetPoint"/><Array as="points"/></mxGeometry></mxCell><mxCell id="SAM__H9FkMtUs_shlH4a-41" value="" style="endArrow=diamondThin;endFill=0;endSize=15;html=1;rounded=0;exitX=1;exitY=0.5;exitDx=0;exitDy=0;entryX=0;entryY=0.5;entryDx=0;entryDy=0;" parent="WIyWlLk6GJQsqaUBKTNV-1" edge="1"><mxGeometry width="160" relative="1" as="geometry"><mxPoint x="390" y="285.1399999999999" as="sourcePoint"/><mxPoint x="464" y="284.64" as="targetPoint"/><Array as="points"/></mxGeometry></mxCell><mxCell id="SAM__H9FkMtUs_shlH4a-43" value="" style="endArrow=diamondThin;endFill=0;endSize=15;html=1;rounded=0;exitX=1;exitY=0.5;exitDx=0;exitDy=0;entryX=0;entryY=0.5;entryDx=0;entryDy=0;" parent="WIyWlLk6GJQsqaUBKTNV-1" edge="1"><mxGeometry width="160" relative="1" as="geometry"><mxPoint x="640" y="284.65999999999985" as="sourcePoint"/><mxPoint x="714" y="284.15999999999985" as="targetPoint"/><Array as="points"/></mxGeometry></mxCell><mxCell id="SAM__H9FkMtUs_shlH4a-45" value="&lt;font style=&quot;font-size: 10px;&quot;&gt;1-7&lt;/font&gt;" style="text;html=1;align=center;verticalAlign=middle;resizable=0;points=[];autosize=1;strokeColor=none;fillColor=none;" parent="WIyWlLk6GJQsqaUBKTNV-1" vertex="1"><mxGeometry x="132" y="235" width="40" height="30" as="geometry"/></mxCell><mxCell id="SAM__H9FkMtUs_shlH4a-46" value="&lt;font style=&quot;font-size: 10px;&quot;&gt;1&lt;/font&gt;" style="text;html=1;align=center;verticalAlign=middle;resizable=0;points=[];autosize=1;strokeColor=none;fillColor=none;" parent="WIyWlLk6GJQsqaUBKTNV-1" vertex="1"><mxGeometry x="180" y="234" width="30" height="30" as="geometry"/></mxCell><mxCell id="SAM__H9FkMtUs_shlH4a-47" value="&lt;font style=&quot;font-size: 10px;&quot;&gt;1&lt;/font&gt;" style="text;html=1;align=center;verticalAlign=middle;resizable=0;points=[];autosize=1;strokeColor=none;fillColor=none;" parent="WIyWlLk6GJQsqaUBKTNV-1" vertex="1"><mxGeometry x="132" y="259" width="30" height="30" as="geometry"/></mxCell><mxCell id="SAM__H9FkMtUs_shlH4a-48" value="&lt;font style=&quot;font-size: 10px;&quot;&gt;1&lt;/font&gt;" style="text;html=1;align=center;verticalAlign=middle;resizable=0;points=[];autosize=1;strokeColor=none;fillColor=none;" parent="WIyWlLk6GJQsqaUBKTNV-1" vertex="1"><mxGeometry x="180" y="258.5" width="30" height="30" as="geometry"/></mxCell><mxCell id="SAM__H9FkMtUs_shlH4a-49" value="&lt;font style=&quot;font-size: 10px;&quot;&gt;1&lt;/font&gt;" style="text;html=1;align=center;verticalAlign=middle;resizable=0;points=[];autosize=1;strokeColor=none;fillColor=none;" parent="WIyWlLk6GJQsqaUBKTNV-1" vertex="1"><mxGeometry x="132" y="285" width="30" height="30" as="geometry"/></mxCell><mxCell id="SAM__H9FkMtUs_shlH4a-50" value="&lt;font style=&quot;font-size: 10px;&quot;&gt;1&lt;/font&gt;" style="text;html=1;align=center;verticalAlign=middle;resizable=0;points=[];autosize=1;strokeColor=none;fillColor=none;" parent="WIyWlLk6GJQsqaUBKTNV-1" vertex="1"><mxGeometry x="180" y="285" width="30" height="30" as="geometry"/></mxCell><mxCell id="SAM__H9FkMtUs_shlH4a-51" value="&lt;font style=&quot;font-size: 10px;&quot;&gt;1&lt;/font&gt;" style="text;html=1;align=center;verticalAlign=middle;resizable=0;points=[];autosize=1;strokeColor=none;fillColor=none;" parent="WIyWlLk6GJQsqaUBKTNV-1" vertex="1"><mxGeometry x="684" y="258" width="30" height="30" as="geometry"/></mxCell><mxCell id="SAM__H9FkMtUs_shlH4a-52" value="&lt;font style=&quot;font-size: 10px;&quot;&gt;*&lt;/font&gt;" style="text;html=1;align=center;verticalAlign=middle;resizable=0;points=[];autosize=1;strokeColor=none;fillColor=none;" parent="WIyWlLk6GJQsqaUBKTNV-1" vertex="1"><mxGeometry x="634" y="260" width="30" height="30" as="geometry"/></mxCell><mxCell id="SAM__H9FkMtUs_shlH4a-53" value="&lt;font style=&quot;font-size: 10px;&quot;&gt;*&lt;/font&gt;" style="text;html=1;align=center;verticalAlign=middle;resizable=0;points=[];autosize=1;strokeColor=none;fillColor=none;" parent="WIyWlLk6GJQsqaUBKTNV-1" vertex="1"><mxGeometry x="385" y="260" width="30" height="30" as="geometry"/></mxCell><mxCell id="SAM__H9FkMtUs_shlH4a-54" value="&lt;font style=&quot;font-size: 10px;&quot;&gt;1&lt;/font&gt;" style="text;html=1;align=center;verticalAlign=middle;resizable=0;points=[];autosize=1;strokeColor=none;fillColor=none;" parent="WIyWlLk6GJQsqaUBKTNV-1" vertex="1"><mxGeometry x="434" y="257" width="30" height="30" as="geometry"/></mxCell><mxCell id="SAM__H9FkMtUs_shlH4a-57" value="&lt;font style=&quot;font-size: 14px;&quot;&gt;Project 4 Class Diagram - Jackson Lee, Serena Zeng&amp;nbsp;&lt;/font&gt;" style="text;html=1;align=center;verticalAlign=middle;resizable=0;points=[];autosize=1;strokeColor=none;fillColor=none;fontSize=10;" parent="WIyWlLk6GJQsqaUBKTNV-1" vertex="1"><mxGeometry x="40" y="40" width="360" height="30" as="geometry"/></mxCell><mxCell id="SAM__H9FkMtUs_shlH4a-58" value="Popup" style="rounded=0;whiteSpace=wrap;html=1;" parent="WIyWlLk6GJQsqaUBKTNV-1" vertex="1"><mxGeometry x="770" y="590" width="120" height="30" as="geometry"/></mxCell></root></mxGraphModel></diagram></mxfile>